<svg xmlns="http://www.w3.org/2000/svg" viewBox="0 0 32 32">
  <!-- Background -->
  <rect width="32" height="32" rx="7" fill="#0d2137"/>
  <!-- Heart -->
  <path d="M16 25l-1.3-1.2C9 18.7 5.5 15.6 5.5 11.7 5.5 8.6 8 6 11 6c1.6 0 3.1.8 4.1 2C16.1 6.8 17.6 6 19 6c3 0 5.5 2.6 5.5 5.7 0 3.9-3.5 7-9.2 12.1L16 25z" fill="#e53935"/>
  <!-- EKG pulse line -->
  <polyline points="6,17 9,17 11,13 13.5,21 16,14.5 18,19 20,17 26,17" fill="none" stroke="white" stroke-width="1.6" stroke-linecap="round" stroke-linejoin="round" opacity="0.92"/>
</svg>
